<svg width="16" height="16" viewBox="0 0 16 16" fill="none" xmlns="http://www.w3.org/2000/svg">
<path d="M5.05664 2.63379L4.78711 2.90527L7.14062 5.26172V5.2627C7.17795 5.30012 7.19914 5.35047 7.19922 5.40332C7.19922 5.45632 7.17808 5.50742 7.14062 5.54492C7.1222 5.56339 7.10027 5.57789 7.07617 5.58789C7.05207 5.59789 7.02609 5.60352 7 5.60352C6.974 5.60348 6.94784 5.59785 6.92383 5.58789C6.89991 5.5779 6.87768 5.56327 6.85938 5.54492V5.54395L5.48145 4.16992L4.79883 3.48926V13C4.79883 13.053 4.77774 13.1041 4.74023 13.1416C4.70273 13.1791 4.65166 13.2002 4.59863 13.2002C4.54578 13.2001 4.4954 13.179 4.45801 13.1416C4.4205 13.1041 4.39941 13.053 4.39941 13V3.47559L3.71582 4.16406L2.33887 5.54883C2.32059 5.56704 2.29922 5.58187 2.27539 5.5918C2.25131 5.6018 2.22529 5.6074 2.19922 5.60742C2.17313 5.60742 2.14715 5.6018 2.12305 5.5918C2.09901 5.58181 2.07699 5.56725 2.05859 5.54883L2.05762 5.54785C2.0205 5.51049 2.00011 5.45989 2 5.40723C2 5.35438 2.02036 5.30309 2.05762 5.26562H2.05859L4.46094 2.85938L4.46387 2.85645C4.48121 2.83871 4.50153 2.82401 4.52441 2.81445C4.54728 2.80491 4.57191 2.80065 4.59668 2.80078H4.59961C4.63058 2.80072 4.66143 2.80713 4.68945 2.82031C4.71746 2.83351 4.74203 2.85306 4.76172 2.87695L5.05664 2.63379ZM11.3994 2.80078C11.4523 2.80087 11.5026 2.82197 11.54 2.85938C11.5775 2.89679 11.5985 2.9471 11.5986 3V12.5117L12.2812 11.8311L13.6592 10.4561H13.6602C13.6786 10.4376 13.7005 10.4231 13.7246 10.4131C13.7485 10.4032 13.7739 10.3975 13.7998 10.3975C13.8259 10.3975 13.8519 10.4031 13.876 10.4131C13.9001 10.4231 13.922 10.4376 13.9404 10.4561C13.9779 10.4936 13.999 10.5447 13.999 10.5977C13.9989 10.6505 13.9778 10.7009 13.9404 10.7383L11.5869 13.0957L11.5215 13.1602C11.5112 13.1675 11.5007 13.1753 11.4893 13.1807C11.4613 13.1938 11.4303 13.2003 11.3994 13.2002H11.3965C11.3718 13.2003 11.347 13.196 11.3242 13.1865C11.3014 13.177 11.281 13.1622 11.2637 13.1445L11.2607 13.1416L8.85742 10.7354C8.81997 10.6979 8.79883 10.6467 8.79883 10.5938C8.79889 10.5409 8.82013 10.4906 8.85742 10.4531V10.4521C8.87578 10.4337 8.89787 10.4192 8.92188 10.4092C8.94593 10.3992 8.972 10.3936 8.99805 10.3936C9.02413 10.3936 9.05013 10.3992 9.07422 10.4092C9.08623 10.4142 9.09764 10.4205 9.1084 10.4277L9.13867 10.4521L10.5156 11.8379L11.1992 12.5254V3C11.1993 2.94716 11.2205 2.89678 11.2578 2.85938C11.2953 2.82187 11.3464 2.80078 11.3994 2.80078Z" fill="black" stroke="#0F1B2A" stroke-width="0.8"/>
</svg>
