<svg width="16" height="16" viewBox="0 0 16 16" fill="none" xmlns="http://www.w3.org/2000/svg">
<path d="M3.99967 2.66663H6.66634C6.84315 2.66663 7.01272 2.73686 7.13775 2.86189C7.26277 2.98691 7.33301 3.15648 7.33301 3.33329V12.6666C7.33301 12.8434 7.26277 13.013 7.13775 13.138C7.01272 13.2631 6.84315 13.3333 6.66634 13.3333H3.99967C3.82286 13.3333 3.65329 13.2631 3.52827 13.138C3.40325 13.013 3.33301 12.8434 3.33301 12.6666V3.33329C3.33301 3.15648 3.40325 2.98691 3.52827 2.86189C3.65329 2.73686 3.82286 2.66663 3.99967 2.66663V2.66663Z" stroke="#0F1B2A" stroke-width="1.3" stroke-linecap="round" stroke-linejoin="round"/>
<path d="M10 8H12.6667" stroke="black" stroke-width="1.3" stroke-linecap="round" stroke-linejoin="round"/>
<path d="M11.333 6.66663V9.33329" stroke="black" stroke-width="1.3" stroke-linecap="round" stroke-linejoin="round"/>
</svg>
