<svg width="16" height="16" viewBox="0 0 16 16" fill="none" xmlns="http://www.w3.org/2000/svg">
<path d="M5.99935 3.33301C5.82254 3.33301 5.65297 3.40325 5.52794 3.52828C5.40292 3.6533 5.33268 3.82287 5.33268 3.99968C5.33268 4.17649 5.40292 4.34606 5.52794 4.47109C5.65297 4.59611 5.82254 4.66635 5.99935 4.66635C6.17616 4.66635 6.34573 4.59611 6.47075 4.47109C6.59578 4.34606 6.66602 4.17649 6.66602 3.99968C6.66602 3.82287 6.59578 3.6533 6.47075 3.52828C6.34573 3.40325 6.17616 3.33301 5.99935 3.33301ZM4.11268 3.33301C4.25042 2.94266 4.50584 2.60464 4.84375 2.36554C5.18166 2.12644 5.58541 1.99805 5.99935 1.99805C6.41329 1.99805 6.81704 2.12644 7.15495 2.36554C7.49286 2.60464 7.74828 2.94266 7.88602 3.33301H12.666C12.8428 3.33301 13.0124 3.40325 13.1374 3.52828C13.2624 3.6533 13.3327 3.82287 13.3327 3.99968C13.3327 4.17649 13.2624 4.34606 13.1374 4.47109C13.0124 4.59611 12.8428 4.66635 12.666 4.66635H7.88602C7.74828 5.0567 7.49286 5.39473 7.15495 5.63382C6.81704 5.87292 6.41329 6.00131 5.99935 6.00131C5.58541 6.00131 5.18166 5.87292 4.84375 5.63382C4.50584 5.39473 4.25042 5.0567 4.11268 4.66635H3.33268C3.15587 4.66635 2.9863 4.59611 2.86128 4.47109C2.73625 4.34606 2.66602 4.17649 2.66602 3.99968C2.66602 3.82287 2.73625 3.6533 2.86128 3.52828C2.9863 3.40325 3.15587 3.33301 3.33268 3.33301H4.11268ZM9.99935 7.33301C9.82254 7.33301 9.65297 7.40325 9.52794 7.52828C9.40292 7.6533 9.33268 7.82287 9.33268 7.99968C9.33268 8.17649 9.40292 8.34606 9.52794 8.47108C9.65297 8.59611 9.82254 8.66635 9.99935 8.66635C10.1762 8.66635 10.3457 8.59611 10.4708 8.47108C10.5958 8.34606 10.666 8.17649 10.666 7.99968C10.666 7.82287 10.5958 7.6533 10.4708 7.52828C10.3457 7.40325 10.1762 7.33301 9.99935 7.33301ZM8.11268 7.33301C8.25042 6.94266 8.50584 6.60464 8.84375 6.36554C9.18166 6.12644 9.58541 5.99805 9.99935 5.99805C10.4133 5.99805 10.817 6.12644 11.1549 6.36554C11.4929 6.60464 11.7483 6.94266 11.886 7.33301H12.666C12.8428 7.33301 13.0124 7.40325 13.1374 7.52828C13.2624 7.6533 13.3327 7.82287 13.3327 7.99968C13.3327 8.17649 13.2624 8.34606 13.1374 8.47108C13.0124 8.59611 12.8428 8.66635 12.666 8.66635H11.886C11.7483 9.0567 11.4929 9.39472 11.1549 9.63382C10.817 9.87292 10.4133 10.0013 9.99935 10.0013C9.58541 10.0013 9.18166 9.87292 8.84375 9.63382C8.50584 9.39472 8.25042 9.0567 8.11268 8.66635H3.33268C3.15587 8.66635 2.9863 8.59611 2.86128 8.47108C2.73625 8.34606 2.66602 8.17649 2.66602 7.99968C2.66602 7.82287 2.73625 7.6533 2.86128 7.52828C2.9863 7.40325 3.15587 7.33301 3.33268 7.33301H8.11268ZM5.99935 11.333C5.82254 11.333 5.65297 11.4033 5.52794 11.5283C5.40292 11.6533 5.33268 11.8229 5.33268 11.9997C5.33268 12.1765 5.40292 12.3461 5.52794 12.4711C5.65297 12.5961 5.82254 12.6663 5.99935 12.6663C6.17616 12.6663 6.34573 12.5961 6.47075 12.4711C6.59578 12.3461 6.66602 12.1765 6.66602 11.9997C6.66602 11.8229 6.59578 11.6533 6.47075 11.5283C6.34573 11.4033 6.17616 11.333 5.99935 11.333ZM4.11268 11.333C4.25042 10.9427 4.50584 10.6046 4.84375 10.3655C5.18166 10.1264 5.58541 9.99805 5.99935 9.99805C6.41329 9.99805 6.81704 10.1264 7.15495 10.3655C7.49286 10.6046 7.74828 10.9427 7.88602 11.333H12.666C12.8428 11.333 13.0124 11.4033 13.1374 11.5283C13.2624 11.6533 13.3327 11.8229 13.3327 11.9997C13.3327 12.1765 13.2624 12.3461 13.1374 12.4711C13.0124 12.5961 12.8428 12.6663 12.666 12.6663H7.88602C7.74828 13.0567 7.49286 13.3947 7.15495 13.6338C6.81704 13.8729 6.41329 14.0013 5.99935 14.0013C5.58541 14.0013 5.18166 13.8729 4.84375 13.6338C4.50584 13.3947 4.25042 13.0567 4.11268 12.6663H3.33268C3.15587 12.6663 2.9863 12.5961 2.86128 12.4711C2.73625 12.3461 2.66602 12.1765 2.66602 11.9997C2.66602 11.8229 2.73625 11.6533 2.86128 11.5283C2.9863 11.4033 3.15587 11.333 3.33268 11.333H4.11268Z" fill="#0F1B2A"/>
</svg>
