
<svg xmlns="http://www.w3.org/2000/svg" width="16" height="16" viewBox="0 0 16 16" fill="none">
<path d="M6.00033 3.33326C5.82351 3.33326 5.65395 3.4035 5.52892 3.52852C5.4039 3.65354 5.33366 3.82311 5.33366 3.99992C5.33366 4.17674 5.4039 4.3463 5.52892 4.47133C5.65395 4.59635 5.82351 4.66659 6.00033 4.66659C6.17714 4.66659 6.34671 4.59635 6.47173 4.47133C6.59675 4.3463 6.66699 4.17674 6.66699 3.99992C6.66699 3.82311 6.59675 3.65354 6.47173 3.52852C6.34671 3.4035 6.17714 3.33326 6.00033 3.33326ZM4.11366 3.33326C4.25139 2.9429 4.50682 2.60488 4.84473 2.36578C5.18263 2.12669 5.58638 1.99829 6.00033 1.99829C6.41427 1.99829 6.81802 2.12669 7.15593 2.36578C7.49383 2.60488 7.74926 2.9429 7.88699 3.33326H12.667C12.8438 3.33326 13.0134 3.4035 13.1384 3.52852C13.2634 3.65354 13.3337 3.82311 13.3337 3.99992C13.3337 4.17674 13.2634 4.3463 13.1384 4.47133C13.0134 4.59635 12.8438 4.66659 12.667 4.66659H7.88699C7.74926 5.05695 7.49383 5.39497 7.15593 5.63407C6.81802 5.87316 6.41427 6.00156 6.00033 6.00156C5.58638 6.00156 5.18263 5.87316 4.84473 5.63407C4.50682 5.39497 4.25139 5.05695 4.11366 4.66659H3.33366C3.15685 4.66659 2.98728 4.59635 2.86225 4.47133C2.73723 4.3463 2.66699 4.17674 2.66699 3.99992C2.66699 3.82311 2.73723 3.65354 2.86225 3.52852C2.98728 3.4035 3.15685 3.33326 3.33366 3.33326H4.11366ZM10.0003 7.33326C9.82351 7.33326 9.65395 7.4035 9.52892 7.52852C9.4039 7.65354 9.33366 7.82311 9.33366 7.99993C9.33366 8.17674 9.4039 8.3463 9.52892 8.47133C9.65395 8.59635 9.82351 8.66659 10.0003 8.66659C10.1771 8.66659 10.3467 8.59635 10.4717 8.47133C10.5968 8.3463 10.667 8.17674 10.667 7.99993C10.667 7.82311 10.5968 7.65354 10.4717 7.52852C10.3467 7.4035 10.1771 7.33326 10.0003 7.33326ZM8.11366 7.33326C8.25139 6.9429 8.50682 6.60488 8.84473 6.36578C9.18263 6.12669 9.58638 5.99829 10.0003 5.99829C10.4143 5.99829 10.818 6.12669 11.1559 6.36578C11.4938 6.60488 11.7493 6.9429 11.887 7.33326H12.667C12.8438 7.33326 13.0134 7.4035 13.1384 7.52852C13.2634 7.65354 13.3337 7.82311 13.3337 7.99993C13.3337 8.17674 13.2634 8.3463 13.1384 8.47133C13.0134 8.59635 12.8438 8.66659 12.667 8.66659H11.887C11.7493 9.05695 11.4938 9.39497 11.1559 9.63407C10.818 9.87316 10.4143 10.0016 10.0003 10.0016C9.58638 10.0016 9.18263 9.87316 8.84473 9.63407C8.50682 9.39497 8.25139 9.05695 8.11366 8.66659H3.33366C3.15685 8.66659 2.98728 8.59635 2.86225 8.47133C2.73723 8.3463 2.66699 8.17674 2.66699 7.99993C2.66699 7.82311 2.73723 7.65354 2.86225 7.52852C2.98728 7.4035 3.15685 7.33326 3.33366 7.33326H8.11366ZM6.00033 11.3333C5.82351 11.3333 5.65395 11.4035 5.52892 11.5285C5.4039 11.6535 5.33366 11.8231 5.33366 11.9999C5.33366 12.1767 5.4039 12.3463 5.52892 12.4713C5.65395 12.5964 5.82351 12.6666 6.00033 12.6666C6.17714 12.6666 6.34671 12.5964 6.47173 12.4713C6.59675 12.3463 6.66699 12.1767 6.66699 11.9999C6.66699 11.8231 6.59675 11.6535 6.47173 11.5285C6.34671 11.4035 6.17714 11.3333 6.00033 11.3333ZM4.11366 11.3333C4.25139 10.9429 4.50682 10.6049 4.84473 10.3658C5.18263 10.1267 5.58638 9.99829 6.00033 9.99829C6.41427 9.99829 6.81802 10.1267 7.15593 10.3658C7.49383 10.6049 7.74926 10.9429 7.88699 11.3333H12.667C12.8438 11.3333 13.0134 11.4035 13.1384 11.5285C13.2634 11.6535 13.3337 11.8231 13.3337 11.9999C13.3337 12.1767 13.2634 12.3463 13.1384 12.4713C13.0134 12.5964 12.8438 12.6666 12.667 12.6666H7.88699C7.74926 13.0569 7.49383 13.395 7.15593 13.6341C6.81802 13.8732 6.41427 14.0016 6.00033 14.0016C5.58638 14.0016 5.18263 13.8732 4.84473 13.6341C4.50682 13.395 4.25139 13.0569 4.11366 12.6666H3.33366C3.15685 12.6666 2.98728 12.5964 2.86225 12.4713C2.73723 12.3463 2.66699 12.1767 2.66699 11.9999C2.66699 11.8231 2.73723 11.6535 2.86225 11.5285C2.98728 11.4035 3.15685 11.3333 3.33366 11.3333H4.11366Z" fill="#73777A"/>
</svg>